Coordinates
version=1
nRows=14
nColumns=33
inDegrees=yes

Units are S.I. units (second, meters, Newtons, ...)
Angles are in degrees.

endheader
time	ground_thorax_rot_x	ground_thorax_rot_y	ground_thorax_rot_z	ground_thorax_tx	ground_thorax_ty	ground_thorax_tz	clav_prot_r	clav_elev_r	scapula_abduction_r	scapula_elevation_r	scapula_upward_rot_r	scapula_winging_r	shoulder_elv_r	plane_of_elev_r	axial_rot_r	elbow_flexion_r	pro_sup_r	wrist_flex_r	wrist_dev_r	clav_prot_l	clav_elev_l	scapula_abduction_l	scapula_elevation_l	scapula_upward_rot_l	scapula_winging_l	shoulder_elv_l	plane_of_elev_l	axial_rot_l	elbow_flexion_l	pro_sup_l	wrist_flex_l	wrist_dev_l
      4.64000000	     35.51262889	      6.57769390	     10.48061855	    -82.85111742	    784.15879368	     11.42814218	      9.81098585	     35.80432947	     45.00000000	     33.54267206	     -5.21585133	  -1171.90158569	  -2823.86762631	     27.27986518	     65.20536309	    731.48633224	     24.36439916	     15.94058182	     10.96938139	      6.24367616	    -45.00000000	    -45.00000000	     45.00000000	    -29.30076735	   -637.07272251	  -3698.37532687	    134.53782451	   -179.99999979	    727.58303937	     39.93250413	      8.94856177	    -19.46344502
      4.65000000	     38.79015337	      8.43706339	      9.35523454	    -76.39937396	    774.90389484	     20.99244341	     10.82753057	     37.98123673	     45.00000000	     35.09204819	     -4.71644144	  -1172.36019262	  -2823.05051561	     27.87968668	     61.85255943	    728.83960191	     23.21667838	     16.71179990	     11.90847847	      5.97068652	    -45.00000000	    -45.00000000	     45.00000000	    -30.66135104	   -638.61837709	  -3699.02815785	    134.70062241	   -179.99999979	    728.14165275	     38.79421881	      9.35052879	    -19.57025152
      4.66000000	     38.82773506	      8.44118229	      9.36358024	    -76.40038519	    774.90350660	     20.99194630	     10.82484094	     37.98121301	     45.00000000	     35.05610122	     -4.72306410	  -1172.36329100	  -2823.07660808	     27.86727473	     61.84728006	    728.84724896	     23.21183018	     16.71543437	     11.90389041	      5.97464059	    -45.00000000	    -45.00000000	     45.00000000	    -30.66475458	   -638.62877821	  -3699.02741919	    134.68282254	   -179.99999979	    728.15427380	     38.78906426	      9.34940150	    -19.57212431
      4.67000000	     38.82081534	      8.59205486	      9.50364678	    -76.63158944	    774.83702372	     20.89549406	     10.56337012	     37.91423086	     45.00000000	     35.09888444	     -4.57092615	  -1172.69980268	  -2823.28234038	     27.91875008	     61.52674032	    728.64900297	     22.92608256	     16.87113279	     11.65417428	      6.26444231	    -45.00000000	    -45.00000000	     45.00000000	    -31.41115599	   -638.62788744	  -3698.74482607	    134.40877434	   -179.99999979	    728.29698988	     38.43635536	      9.40455852	    -19.57351822
      4.68000000	     38.81611571	      8.66104548	      9.60643917	    -76.85031995	    774.79839650	     20.82708517	     10.75684010	     37.96106505	     45.00000000	     35.09129577	     -4.88331070	  -1172.57764567	  -2823.18077926	     27.86183933	     61.67309697	    728.71125886	     22.86529784	     16.73240691	     11.86499942	      6.23051099	    -45.00000000	    -45.00000000	     45.00000000	    -31.18253720	   -638.59430899	  -3698.94588248	    134.63842866	   -179.99999979	    728.22493134	     38.08301175	      9.41887451	    -19.50751168
      4.69000000	     38.93247108	      8.52789959	      9.40099690	    -77.14256151	    774.76070185	     20.76367027	     10.65217331	     37.94855036	     45.00000000	     35.13508687	     -4.80004443	  -1172.49308339	  -2823.15115021	     27.93331974	     61.56005889	    728.75515360	     22.81235724	     16.93234544	     11.84416685	      6.24385961	    -45.00000000	    -45.00000000	     45.00000000	    -31.40452280	   -638.65189172	  -3698.76692296	    134.41702897	   -179.99999979	    728.29669932	     37.86594683	      9.52476230	    -19.55041164
      4.70000000	     38.89623815	      8.67562979	      9.57719008	    -77.50893797	    774.72167013	     20.70197343	     10.69007199	     37.98411721	     45.00000000	     35.11589541	     -4.89658705	  -1172.55126476	  -2823.18620988	     27.86954563	     61.56600965	    728.73349190	     22.87288657	     16.76328279	     11.92860893	      6.23053486	    -45.00000000	    -45.00000000	     45.00000000	    -31.28153787	   -638.64637443	  -3698.95394429	    134.61818930	   -179.99999979	    728.18587772	     37.67032079	      9.49315430	    -19.46362982
      4.71000000	     38.94400035	      8.64965592	      9.42146893	    -77.93320862	    774.68309615	     20.64779133	     10.69648173	     38.01004419	     45.00000000	     35.11998709	     -4.87515533	  -1172.57331854	  -2823.17242465	     27.89476890	     61.47239531	    728.67536861	     22.89237172	     16.91274074	     11.83265153	      6.24726907	    -45.00000000	    -45.00000000	     45.00000000	    -31.44814529	   -638.62556413	  -3698.78792815	    134.41737618	   -179.99999979	    728.28431318	     37.52883486	      9.59561740	    -19.52682378
      4.72000000	     38.97349165	      8.76609162	      9.53928838	    -78.40241394	    774.64133649	     20.58916540	     10.68211103	     38.04914207	     45.00000000	     35.15985199	     -4.96335747	  -1172.62575856	  -2823.14953974	     27.86147779	     61.45697886	    728.73944290	     22.96290353	     16.77710710	     11.96200276	      6.23696464	    -45.00000000	    -45.00000000	     45.00000000	    -31.39886796	   -638.60233177	  -3698.97394472	    134.58271684	   -179.99999979	    728.24206791	     37.41050294	      9.53049852	    -19.45626526
      4.73000000	     39.01878099	      8.71657918	      9.39648394	    -78.90436184	    774.60303687	     20.52995744	     10.72252162	     38.07402566	     45.00000000	     35.19343438	     -4.95660441	  -1172.65220491	  -2823.14476900	     27.93432150	     61.31203966	    728.66435011	     22.95818126	     16.92445319	     11.82982588	      6.27213042	    -45.00000000	    -45.00000000	     45.00000000	    -31.59751427	   -638.55371052	  -3698.77313599	    134.40184450	   -179.99999979	    728.29124322	     37.33591705	      9.65404637	    -19.52709183
      4.74000000	     39.04872620	      8.87174577	      9.56659729	    -79.42542080	    774.56848204	     20.46513593	     10.69008252	     38.14898596	     45.00000000	     35.23172404	     -5.02728406	  -1172.71344223	  -2823.10812546	     27.86848577	     61.19531670	    728.73309179	     22.97648183	     16.76773949	     12.06306832	      6.25617823	    -45.00000000	    -45.00000000	     45.00000000	    -31.55809103	   -638.52748175	  -3699.04787744	    134.59594493	   -179.99999979	    728.23535115	     37.25841726	      9.54435771	    -19.43392340
      4.75000000	     39.10153550	      8.81045670	      9.33344923	    -79.96706436	    774.53787632	     20.39458981	     10.75777587	     38.15968371	     45.00000000	     35.28276879	     -5.07462410	  -1172.70841644	  -2823.10093315	     27.99980629	     60.98085364	    728.60869325	     22.88968923	     16.92959467	     11.85835626	      6.30941720	    -45.00000000	    -45.00000000	     45.00000000	    -31.77890586	   -638.46790127	  -3698.73673176	    134.37702037	   -179.99999979	    728.30368728	     37.21880642	      9.69796825	    -19.53471158
      4.76000000	     39.11342197	      9.03301210	      9.53295988	    -80.52051539	    774.51217937	     20.31864617	     10.72368495	     38.26335001	     45.00000000	     35.35824561	     -5.16488446	  -1172.76206003	  -2823.03827190	     27.88741143	     60.82262623	    728.67030320	     22.84538612	     16.76283609	     12.19442252	      6.29208853	    -45.00000000	    -45.00000000	     45.00000000	    -31.72739495	   -638.39931187	  -3699.03220925	    134.60700456	   -179.99999979	    728.23140923	     37.16286092	      9.55298346	    -19.41989886
      4.77000000	     39.17942950	      8.90689790	      9.23379351	    -81.08567241	    774.49237123	     20.23716097	     10.80725925	     38.27262063	     45.00000000	     35.40961882	     -5.18282809	  -1172.79404012	  -2823.05796623	     28.09682693	     60.57053337	    728.54502889	     22.68259141	     16.92699947	     11.87909018	      6.35176731	    -45.00000000	    -45.00000000	     45.00000000	    -31.99280622	   -638.35075205	  -3698.68985154	    134.34016215	   -179.99999979	    728.33291362	     37.14897440	      9.73056762	    -19.55051796
